<svg width="21" height="25" viewBox="0 0 21 25" fill="none" xmlns="http://www.w3.org/2000/svg">
<path d="M12.3529 14.375V7.5C12.3529 4.73857 10.1407 2.5 7.41176 2.5C4.68283 2.5 2.47059 4.73857 2.47059 7.5V14.375C2.47059 18.8624 6.06548 22.5 10.5 22.5C14.9346 22.5 18.5294 18.8624 18.5294 14.375V2.5H21V14.375C21 20.243 16.299 25 10.5 25C4.70101 25 0 20.243 0 14.375V7.5C0 3.35786 3.31836 0 7.41176 0C11.5052 0 14.8235 3.35786 14.8235 7.5V14.375C14.8235 16.7913 12.8878 18.75 10.5 18.75C8.11218 18.75 6.17647 16.7913 6.17647 14.375V7.5H8.64706V14.375C8.64706 15.4105 9.47668 16.25 10.5 16.25C11.5233 16.25 12.3529 15.4105 12.3529 14.375Z" fill="black"/>
</svg>
