<svg width="92" height="92" viewBox="0 0 92 92" fill="none" xmlns="http://www.w3.org/2000/svg">
<path d="M78.5302 16.7751C78.9565 16.3342 79.1925 15.7435 79.1875 15.1302C79.1824 14.5169 78.9367 13.9302 78.5033 13.4963C78.0698 13.0624 77.4833 12.8161 76.87 12.8105C76.2567 12.8049 75.6658 13.0404 75.2244 13.4662L72.6453 16.0454C72.4155 16.2595 72.2312 16.5177 72.1034 16.8046C71.9755 17.0916 71.9068 17.4013 71.9012 17.7153C71.8957 18.0294 71.9535 18.3413 72.0711 18.6326C72.1887 18.9238 72.3638 19.1884 72.586 19.4105C72.8081 19.6326 73.0726 19.8077 73.3639 19.9253C73.6551 20.043 73.9671 20.1008 74.2811 20.0952C74.5952 20.0897 74.9049 20.0209 75.1918 19.8931C75.4787 19.7653 75.737 19.5809 75.9511 19.3511L78.5302 16.7751Z" fill="black"/>
<path d="M48.3389 5.96909V2.33898C48.3389 1.71865 48.0924 1.12372 47.6538 0.685072C47.2151 0.246428 46.6202 0 45.9999 0C45.3795 0 44.7846 0.246428 44.346 0.685072C43.9073 1.12372 43.6609 1.71865 43.6609 2.33898V5.96909C43.6609 6.58942 43.9073 7.18435 44.346 7.623C44.7846 8.06164 45.3795 8.30807 45.9999 8.30807C46.6202 8.30807 47.2151 8.06164 47.6538 7.623C48.0924 7.18435 48.3389 6.58942 48.3389 5.96909Z" fill="black"/>
<path d="M2.33898 48.339H5.9722C6.59254 48.339 7.18747 48.0925 7.62611 47.6539C8.06476 47.2153 8.31119 46.6203 8.31119 46C8.31119 45.3797 8.06476 44.7847 7.62611 44.3461C7.18747 43.9074 6.59254 43.661 5.9722 43.661H2.33898C1.71865 43.661 1.12372 43.9074 0.685072 44.3461C0.246428 44.7847 0 45.3797 0 46C0 46.6203 0.246428 47.2153 0.685072 47.6539C1.12372 48.0925 1.71865 48.339 2.33898 48.339Z" fill="black"/>
<path d="M89.6608 43.661H86.0276C85.4072 43.661 84.8123 43.9074 84.3737 44.3461C83.935 44.7847 83.6886 45.3797 83.6886 46C83.6886 46.6203 83.935 47.2153 84.3737 47.6539C84.8123 48.0925 85.4072 48.339 86.0276 48.339H89.6608C90.2811 48.339 90.8761 48.0925 91.3147 47.6539C91.7534 47.2153 91.9998 46.6203 91.9998 46C91.9998 45.3797 91.7534 44.7847 91.3147 44.3461C90.8761 43.9074 90.2811 43.661 89.6608 43.661Z" fill="black"/>
<path d="M13.4691 16.7752L16.0482 19.3512C16.4948 19.7354 17.0699 19.937 17.6586 19.9157C18.2474 19.8944 18.8064 19.6517 19.2239 19.2361C19.6415 18.8205 19.8868 18.2626 19.9109 17.674C19.935 17.0854 19.7362 16.5093 19.354 16.061L16.7749 13.4819C16.3336 13.056 15.7426 12.8205 15.1293 12.8261C14.5161 12.8318 13.9295 13.078 13.4961 13.5119C13.0626 13.9458 12.8169 14.5325 12.8118 15.1458C12.8068 15.7591 13.0428 16.3498 13.4691 16.7908V16.7752Z" fill="black"/>
<path d="M63.3455 75.5834C64.1042 71.9812 65.7195 68.6148 68.0547 65.7691L69.2117 64.0507C71.9282 59.9609 73.6165 55.2754 74.1328 50.3929C74.6492 45.5104 73.9784 40.5754 72.1775 36.0078C71.9347 35.4455 71.4809 35.0008 70.9137 34.7695C70.3466 34.5381 69.7113 34.5384 69.1444 34.7704C68.5774 35.0024 68.1242 35.4475 67.8819 36.0102C67.6397 36.5728 67.6278 37.208 67.8489 37.7792C69.3649 41.6397 69.9261 45.8092 69.4847 49.9331C69.0433 54.057 67.6123 58.0133 65.3134 61.4653L64.1844 63.1463C61.5968 66.3954 59.7693 70.1825 58.836 74.2299H48.3386V56.1013C49.4762 56.6761 50.7316 56.9793 52.0061 56.987C53.3883 56.9923 54.7501 56.6543 55.9693 56.0033C57.1885 55.3523 58.2269 54.4087 58.9913 53.2572C59.7558 52.1057 60.2222 50.7824 60.3488 49.4061C60.4755 48.0298 60.2583 46.6435 59.7168 45.3719C59.1753 44.1003 58.3265 42.983 57.2465 42.1205C56.1665 41.258 54.8892 40.6772 53.5293 40.4303C52.1694 40.1834 50.7695 40.2781 49.4553 40.7059C48.141 41.1337 46.9536 41.8812 45.9996 42.8813C44.935 41.7536 43.578 40.944 42.08 40.5428C40.582 40.1416 39.0019 40.1646 37.5162 40.6092C36.0305 41.0538 34.6976 41.9026 33.6663 43.0608C32.635 44.219 31.9459 45.641 31.6758 47.1681C31.4057 48.6952 31.5654 50.2674 32.1369 51.709C32.7085 53.1507 33.6694 54.4051 34.9125 55.3323C36.1556 56.2595 37.632 56.823 39.1767 56.9599C40.7215 57.0968 42.2739 56.8017 43.6606 56.1075V74.2362H33.1415C32.2229 70.3702 30.4863 66.746 28.0487 63.6078C27.3252 62.5257 26.5299 61.3375 25.6817 59.9777C23.3847 56.2825 22.1348 52.0327 22.0656 47.6823C21.9964 43.3319 23.1104 39.0445 25.2887 35.2781C25.5008 34.907 25.7253 34.5452 25.9592 34.1897C27.7739 31.4082 30.1474 29.0347 32.929 27.2201C35.7106 25.4056 38.8393 24.1896 42.1162 23.6496C45.3931 23.1096 48.7465 23.2574 51.9632 24.0835C55.1799 24.9097 58.1895 26.3961 60.8007 28.4482C61.2907 28.8149 61.9049 28.975 62.5116 28.894C63.1182 28.813 63.669 28.4975 64.0457 28.0151C64.4223 27.5328 64.5949 26.922 64.5264 26.3138C64.4579 25.7056 64.1538 25.1485 63.6792 24.762C60.5616 22.2948 56.9603 20.5101 53.1088 19.5238C49.2573 18.5374 45.2415 18.3713 41.3217 19.0362C37.4136 19.6895 33.6833 21.1451 30.3657 23.3114C27.0481 25.4777 24.2151 28.3077 22.0453 31.623C21.7646 32.0472 21.4964 32.4838 21.2407 32.9266C18.6375 37.4289 17.3062 42.5538 17.3892 47.7539C17.4721 52.954 18.9661 58.0338 21.7116 62.4508C22.5911 63.8604 23.4144 65.0892 24.1785 66.2275C26.3717 68.9742 27.8992 72.1914 28.6413 75.6271C28.7874 76.5421 29.2535 77.3755 29.9564 77.9791C30.6594 78.5827 31.5538 78.9174 32.4803 78.9235H59.5002C60.4347 78.9185 61.3364 78.5788 62.0418 77.966C62.7473 77.3532 63.2098 76.508 63.3455 75.5834ZM52.0061 44.9739C52.7314 44.9739 53.4403 45.189 54.0434 45.5918C54.6464 45.9947 55.1165 46.5673 55.3942 47.2372C55.6719 47.9072 55.7447 48.6445 55.6034 49.3558C55.4622 50.0672 55.1132 50.7207 54.6006 51.2337C54.088 51.7467 53.4348 52.0963 52.7235 52.2381C52.0123 52.38 51.275 52.3078 50.6048 52.0307C49.9346 51.7536 49.3616 51.284 48.9582 50.6813C48.5549 50.0786 48.3392 49.3698 48.3386 48.6446C48.3394 47.6719 48.726 46.7392 49.4135 46.0511C50.1011 45.3629 51.0334 44.9756 52.0061 44.9739ZM39.9931 52.309C39.2676 52.309 38.5584 52.0938 37.9552 51.6907C37.352 51.2876 36.882 50.7146 36.6045 50.0442C36.327 49.3739 36.2545 48.6363 36.3963 47.9248C36.5381 47.2133 36.8877 46.5598 37.4009 46.047C37.9141 45.5342 38.5679 45.1852 39.2795 45.044C39.9912 44.9029 40.7287 44.9759 41.3988 45.254C42.0689 45.5321 42.6415 46.0026 43.0441 46.6062C43.4467 47.2097 43.6613 47.9191 43.6606 48.6446C43.659 49.6165 43.272 50.548 42.5844 51.235C41.8969 51.9219 40.965 52.3082 39.9931 52.309Z" fill="black"/>
<path d="M37.9254 87.322C37.3051 87.322 36.7101 87.5684 36.2715 88.0071C35.8329 88.4457 35.5864 89.0407 35.5864 89.661C35.5864 90.2813 35.8329 90.8763 36.2715 91.3149C36.7101 91.7536 37.3051 92 37.9254 92H54.0737C54.6941 92 55.289 91.7536 55.7277 91.3149C56.1663 90.8763 56.4127 90.2813 56.4127 89.661C56.4127 89.0407 56.1663 88.4457 55.7277 88.0071C55.289 87.5684 54.6941 87.322 54.0737 87.322H37.9254Z" fill="black"/>
</svg>
