<svg width="92" height="92" viewBox="0 0 92 92" fill="none" xmlns="http://www.w3.org/2000/svg">
<path d="M52.0712 60.4093L82.7226 91.0619C83.3758 91.6861 84.227 92 85.0782 92C85.9511 92 86.8252 91.6704 87.4845 91.0124L91.01 87.4881C91.668 86.8252 92 85.9523 92 85.0794C92 84.2053 91.6692 83.3311 91.01 82.6695L59.9191 51.5786C58.6224 50.265 57.6613 48.7848 57.054 47.1669C56.4371 45.5261 56.1847 43.7489 56.3067 41.8762C56.4685 39.418 56.0326 36.99 55.0377 34.8397C54.0827 32.78 52.6073 30.9689 50.649 29.6239C48.7063 28.2898 46.5077 27.5641 44.2656 27.4036C42.5318 27.2804 40.7655 27.4917 39.0631 28.0169L45.7676 32.623C47.1705 33.5973 48.0555 35.0583 48.3453 36.6242C48.6375 38.1974 48.3308 39.8841 47.3601 41.3003C45.9668 43.2913 44.629 45.3402 43.2237 47.3203C42.2493 48.7184 40.792 49.5998 39.2297 49.8895C37.6553 50.1817 35.9686 49.8762 34.5512 48.9055L27.8696 44.3151C27.9891 46.0948 28.425 47.8201 29.1627 49.3933C30.1165 51.4265 31.5823 53.217 33.5503 54.5681C34.8144 55.4313 36.1618 56.0278 37.5551 56.3876C39.016 56.7655 40.5421 56.8826 42.0634 56.7534C43.9746 56.5904 45.7953 56.8246 47.4808 57.4404C49.1651 58.0549 50.7105 59.0522 52.0712 60.4093ZM70.2421 59.016C71.1235 57.566 71.8974 56.0398 72.553 54.4534C73.3522 52.5204 73.9777 50.4932 74.4027 48.3996C74.4968 47.9288 74.9037 47.5979 75.3649 47.581L83.4531 47.2901V36.1642L75.3649 35.872C74.8856 35.8551 74.4956 35.5086 74.4039 35.0583C73.974 32.949 73.3474 30.911 72.5433 28.9719C71.7211 26.9919 70.713 25.1047 69.5454 23.3432C69.2774 22.9387 69.3378 22.4099 69.6601 22.0743L75.1645 16.1545L67.2997 8.28977L61.368 13.805C61.0166 14.1322 60.495 14.1624 60.1111 13.9088C58.3471 12.7401 56.4612 11.732 54.4558 10.9013C52.5059 10.096 50.486 9.47298 48.3996 9.05041C47.9288 8.95623 47.5979 8.54935 47.581 8.08814L47.2901 0H36.1642L35.872 8.08814C35.8551 8.5735 35.4989 8.96831 35.0401 9.05282C32.9454 9.47781 30.9134 10.1069 28.949 10.9218C26.9653 11.7452 25.0975 12.7474 23.3432 13.9088C22.9387 14.1769 22.4099 14.1165 22.0743 13.7941L16.1545 8.28856L8.28856 16.1545L13.805 22.0863C14.1322 22.4377 14.1624 22.9593 13.9088 23.3432C12.7401 25.1072 11.732 26.9931 10.911 28.9756C10.1056 30.9206 9.4754 32.955 9.05041 35.0534C8.95623 35.5243 8.54935 35.8551 8.08814 35.872L0 36.1642V47.2901L8.08814 47.581C8.5735 47.5979 8.96831 47.9541 9.05282 48.4129C9.47902 50.5113 10.1081 52.5433 10.9097 54.4799C11.732 56.4612 12.7401 58.3471 13.9088 60.1111C14.1769 60.5155 14.1165 61.0444 13.7929 61.38L8.28977 67.2997L16.1545 75.1645L22.0863 69.6493C22.4377 69.3221 22.9593 69.2919 23.3432 69.5454C25.1047 70.713 26.9918 71.7211 28.9961 72.553C30.9448 73.3571 32.9659 73.9777 35.0583 74.4027C35.5412 74.5005 35.8744 74.9279 35.8732 75.4024L36.1642 83.4531H47.2901L47.581 75.3649C47.5979 74.8796 47.9541 74.4848 48.4129 74.4002C50.5017 73.9753 52.5252 73.351 54.4558 72.553C56.0411 71.8974 57.5647 71.1222 59.0136 70.2421L52.0362 63.2647C50.5632 63.9698 49.0033 64.5312 47.3758 64.926C45.5551 65.3679 43.6607 65.6034 41.7277 65.6034C35.1343 65.6034 29.1627 62.9303 24.8439 58.6115C20.524 54.2916 17.8509 48.3187 17.8509 41.7277C17.8509 35.1367 20.5228 29.1687 24.8427 24.8476C29.1687 20.5228 35.1367 17.8509 41.7277 17.8509C48.3187 17.8509 54.2916 20.524 58.6115 24.8439C62.9303 29.1627 65.6034 35.1343 65.6034 41.7277C65.6034 43.6607 65.3679 45.5563 64.926 47.3782C64.53 49.0069 63.9698 50.5693 63.2647 52.0398L70.2421 59.016Z" fill="black"/>
</svg>
