<svg width="75" height="91" viewBox="0 0 75 91" fill="none" xmlns="http://www.w3.org/2000/svg">
<path d="M53.994 34.0545L39.3983 45.6488C38.9579 45.2778 38.4182 45.0441 37.8462 44.9768C37.2742 44.9096 36.695 45.0116 36.1805 45.2704L28.1035 35.1028C28.0539 35.0403 27.9926 34.9882 27.9229 34.9495C27.8532 34.9108 27.7765 34.8862 27.6973 34.877C27.6181 34.8679 27.5379 34.8745 27.4612 34.8964C27.3845 34.9183 27.3129 34.9551 27.2505 35.0046C27.188 35.0542 27.1359 35.1156 27.0972 35.1853C27.0585 35.255 27.0338 35.3316 27.0247 35.4108C27.0156 35.49 27.0222 35.5703 27.0441 35.6469C27.066 35.7236 27.1028 35.7952 27.1523 35.8577L35.2273 46.0232C34.8542 46.4669 34.6202 47.0107 34.5547 47.5867C34.4892 48.1627 34.595 48.7452 34.859 49.2613L33.3229 50.4756C33.2241 50.554 33.1522 50.6612 33.1171 50.7823C33.082 50.9034 33.0855 51.0325 33.1272 51.1515C33.1688 51.2705 33.2464 51.3737 33.3493 51.4466C33.4522 51.5195 33.5752 51.5585 33.7013 51.5583C33.8381 51.5581 33.9707 51.5117 34.0778 51.4268L35.6138 50.2125C36.0575 50.5799 36.599 50.8093 37.1715 50.8726C37.744 50.9359 38.3225 50.8303 38.8357 50.5687L40.05 52.1047C40.1072 52.1765 40.1798 52.2343 40.2626 52.2739C40.3453 52.3135 40.4359 52.3339 40.5276 52.3334C40.6643 52.3332 40.797 52.2869 40.9041 52.2019C40.9666 52.1522 41.0187 52.0907 41.0574 52.0209C41.0962 51.9511 41.1208 51.8743 41.1298 51.795C41.1388 51.7157 41.1321 51.6353 41.11 51.5586C41.088 51.4819 41.051 51.4103 41.0012 51.3478L39.7869 49.8118C40.1517 49.3706 40.3806 48.833 40.4456 48.2643C40.5106 47.6956 40.4091 47.1202 40.1532 46.6081L54.7509 35.0117C54.8134 34.9621 54.8654 34.9008 54.9042 34.8311C54.9429 34.7614 54.9675 34.6847 54.9767 34.6055C54.9858 34.5263 54.9792 34.4461 54.9573 34.3694C54.9354 34.2927 54.8986 34.2211 54.8491 34.1587C54.7995 34.0962 54.7381 34.0441 54.6684 34.0054C54.5987 33.9667 54.5221 33.942 54.4429 33.9329C54.3637 33.9238 54.2834 33.9304 54.2068 33.9523C54.1301 33.9742 54.0585 34.011 53.996 34.0605L53.994 34.0545ZM35.7515 47.9215C35.7515 47.5757 35.854 47.2376 36.0461 46.9501C36.2383 46.6625 36.5114 46.4384 36.8309 46.3061C37.1504 46.1737 37.502 46.1391 37.8411 46.2066C38.1803 46.274 38.4919 46.4406 38.7364 46.6851C38.981 46.9297 39.1475 47.2412 39.215 47.5804C39.2825 47.9196 39.2478 48.2712 39.1155 48.5907C38.9831 48.9102 38.759 49.1833 38.4715 49.3754C38.1839 49.5676 37.8459 49.6701 37.5 49.6701C37.0364 49.6696 36.592 49.4852 36.2642 49.1574C35.9364 48.8296 35.752 48.3851 35.7515 47.9215Z" fill="black"/>
<path d="M73.3678 47.9216C73.366 42.2219 72.0049 36.6048 69.3975 31.5364C66.7901 26.468 63.0116 22.0945 58.3755 18.7789L60.5268 16.6296L67.6911 23.7918C67.8129 23.9144 67.9578 24.0116 68.1174 24.078C68.277 24.1444 68.4482 24.1785 68.621 24.1785C68.7938 24.1785 68.965 24.1444 69.1246 24.078C69.2842 24.0116 69.4291 23.9144 69.5509 23.7918L73.0359 20.3068C74.2936 19.0464 75 17.3386 75 15.558C75 13.7774 74.2936 12.0695 73.0359 10.8091L65.2261 2.98308C63.9653 1.72524 62.2571 1.01884 60.4762 1.01884C58.6953 1.01884 56.9871 1.72524 55.7264 2.98308L52.2353 6.46605C51.9891 6.71333 51.8509 7.04806 51.8509 7.39699C51.8509 7.74593 51.9891 8.08066 52.2353 8.32794L58.6669 14.7596L56.1392 17.2873C50.8693 14.0648 44.8519 12.2683 38.6779 12.074V8.0264H43.7556C44.1045 8.0264 44.439 7.8878 44.6857 7.6411C44.9324 7.39441 45.071 7.05981 45.071 6.71093V1.31547C45.071 0.966586 44.9324 0.631991 44.6857 0.385292C44.439 0.138594 44.1045 0 43.7556 0H31.2444C30.8955 0 30.5609 0.138594 30.3143 0.385292C30.0676 0.631991 29.929 0.966586 29.929 1.31547V6.71295C29.929 7.06183 30.0676 7.39643 30.3143 7.64313C30.5609 7.88983 30.8955 8.02842 31.2444 8.02842H36.0469V12.076C29.9679 12.3148 24.0514 14.1061 18.8608 17.2792L16.3331 14.7515L22.7647 8.33199C23.0114 8.08497 23.1499 7.75014 23.1499 7.40104C23.1499 7.05194 23.0114 6.71712 22.7647 6.47009L19.2858 2.98308C18.0254 1.72537 16.3175 1.01901 14.5369 1.01901C12.7564 1.01901 11.0485 1.72537 9.78809 2.98308L1.96407 10.799C0.706353 12.0594 0 13.7673 0 15.5479C0 17.3284 0.706353 19.0363 1.96407 20.2967L5.44905 23.7817C5.57093 23.9043 5.71583 24.0015 5.87542 24.0679C6.03501 24.1343 6.20615 24.1684 6.37899 24.1684C6.55184 24.1684 6.72297 24.1343 6.88257 24.0679C7.04216 24.0015 7.18706 23.9043 7.30893 23.7817L14.4732 16.6296L16.6245 18.7809C12.2581 21.9024 8.64896 25.9652 6.06387 30.6691C3.47878 35.373 1.98382 40.5977 1.68947 45.9571C1.39512 51.3164 2.3089 56.6734 4.36328 61.6321C6.41767 66.5908 9.56013 71.0245 13.5584 74.6054L4.24287 88.2721C4.10801 88.4693 4.02937 88.6994 4.01538 88.9378C4.00138 89.1763 4.05256 89.414 4.16343 89.6255C4.27431 89.8371 4.44068 90.0145 4.64471 90.1386C4.84873 90.2628 5.08272 90.3291 5.32156 90.3304H11.3687C11.6414 90.3304 11.9073 90.2455 12.1296 90.0875L24.4445 81.3325C32.8343 84.6083 42.1495 84.6083 50.5393 81.3325L62.8623 90.0936C63.0846 90.2516 63.3505 90.3364 63.6232 90.3364H69.6784C69.9183 90.3359 70.1534 90.2698 70.3584 90.1454C70.5633 90.0209 70.7304 89.8427 70.8415 89.6302C70.9525 89.4176 71.0034 89.1788 70.9885 88.9394C70.9737 88.7001 70.8936 88.4693 70.7571 88.2721L61.4476 74.6034C65.1999 71.2449 68.2011 67.1324 70.2552 62.5346C72.3092 57.9368 73.3699 52.9573 73.3678 47.9216ZM57.5822 4.84296C58.349 4.07785 59.3879 3.64815 60.4712 3.64815C61.5544 3.64815 62.5933 4.07785 63.3601 4.84296L71.1761 12.6589C71.9119 13.3973 72.3378 14.3889 72.3668 15.4309C72.3957 16.4729 72.0255 17.4867 71.3319 18.2648L60.8365 7.7714C60.7801 7.71492 60.7132 7.6701 60.6395 7.63948C60.5659 7.60886 60.4869 7.59306 60.4071 7.59297C60.3273 7.59287 60.2483 7.60849 60.1746 7.63893C60.1008 7.66938 60.0338 7.71404 59.9773 7.77039C59.9209 7.82673 59.876 7.89364 59.8454 7.96731C59.8148 8.04098 59.799 8.11995 59.7989 8.19973C59.7988 8.2795 59.8144 8.35852 59.8449 8.43225C59.8753 8.50599 59.92 8.57301 59.9763 8.62949L70.4799 19.133L68.62 20.9909L55.0261 7.39699L57.5822 4.84296ZM32.5599 2.63094H42.4401V5.40153H32.5599V2.63094ZM6.38 20.9909L4.38251 18.9954L14.7484 8.62949C14.8048 8.57301 14.8494 8.50599 14.8799 8.43225C14.9103 8.35852 14.9259 8.2795 14.9258 8.19973C14.9257 8.11995 14.9099 8.04098 14.8793 7.96731C14.8487 7.89364 14.8039 7.82673 14.7474 7.77039C14.6909 7.71404 14.6239 7.66938 14.5502 7.63893C14.4764 7.60849 14.3974 7.59287 14.3176 7.59297C14.2379 7.59306 14.1589 7.60886 14.0852 7.63948C14.0116 7.6701 13.9447 7.71492 13.8883 7.7714L3.54061 18.1211C2.90551 17.3358 2.58312 16.3434 2.63542 15.3347C2.68773 14.326 3.11102 13.3723 3.82394 12.6569L11.6419 4.84093C12.4089 4.07632 13.4478 3.64696 14.5309 3.64696C15.6139 3.64696 16.6528 4.07632 17.4198 4.84093L19.9739 7.39699L6.38 20.9909ZM10.9558 87.6994H7.8169L15.5883 76.2993C17.4809 77.7629 19.5148 79.0341 21.6597 80.094L10.9558 87.6994ZM4.26311 47.9216C4.26311 29.594 19.1725 14.6827 37.5 14.6827C55.8275 14.6827 70.7369 29.594 70.7369 47.9216C70.7369 66.2491 55.8275 81.1585 37.5 81.1585C19.1725 81.1585 4.26311 66.2491 4.26311 47.9216ZM67.1831 87.6994H64.0442L53.3443 80.094C55.4893 79.0341 57.5231 77.7629 59.4157 76.2993L67.1831 87.6994Z" fill="black"/>
<path d="M66.8451 47.9217C66.8451 31.7312 53.6783 18.5765 37.5 18.5765C21.3218 18.5765 8.15491 31.7454 8.15491 47.9217C8.15491 64.0979 21.3218 77.2668 37.5 77.2668C53.6783 77.2668 66.8451 64.106 66.8451 47.9217ZM37.5 76.0525C21.9856 76.0525 9.36919 63.43 9.36919 47.9217C9.36919 32.4133 21.9916 19.7908 37.5 19.7908C53.0084 19.7908 65.6309 32.4153 65.6309 47.9217C65.6309 63.428 53.0145 76.0586 37.5 76.0586V76.0525Z" fill="black"/>
<path d="M69.0248 47.9216C69.0248 47.7606 68.9608 47.6061 68.847 47.4923C68.7331 47.3784 68.5787 47.3145 68.4177 47.3145C68.2566 47.3145 68.1022 47.3784 67.9883 47.4923C67.8745 47.6061 67.8105 47.7606 67.8105 47.9216C67.8104 54.3573 65.7626 60.6261 61.9635 65.8209C58.1644 71.0156 52.811 74.8669 46.678 76.8174C46.5397 76.8612 46.4217 76.953 46.3453 77.0763C46.2689 77.1996 46.2391 77.3461 46.2613 77.4894C46.2836 77.6327 46.3564 77.7633 46.4666 77.8576C46.5768 77.9519 46.7171 78.0036 46.8622 78.0034C46.9246 78.0027 46.9866 77.9932 47.0463 77.975C53.4246 75.9458 58.992 71.94 62.9431 66.5373C66.8942 61.1345 69.0242 54.6149 69.0248 47.9216Z" fill="black"/>
<path d="M14.9973 48.5286C15.1583 48.5286 15.3127 48.4647 15.4266 48.3508C15.5405 48.237 15.6044 48.0825 15.6044 47.9215C15.6044 47.7605 15.5405 47.6061 15.4266 47.4922C15.3127 47.3783 15.1583 47.3144 14.9973 47.3144H11.652C11.6095 47.3045 11.566 47.2998 11.5224 47.3002C11.3576 47.3002 11.1996 47.3657 11.0831 47.4822C10.9666 47.5987 10.9011 47.7567 10.9011 47.9215C10.9011 48.0863 10.9666 48.2443 11.0831 48.3608C11.1996 48.4774 11.3576 48.5428 11.5224 48.5428C11.566 48.5422 11.6093 48.5375 11.652 48.5286H14.9973Z" fill="black"/>
<path d="M36.8927 25.4189C36.8927 25.5799 36.9567 25.7344 37.0705 25.8482C37.1844 25.9621 37.3388 26.0261 37.4998 26.0261C37.6609 26.0261 37.8153 25.9621 37.9292 25.8482C38.043 25.7344 38.107 25.5799 38.107 25.4189V22.0736C38.1158 22.031 38.1206 21.9876 38.1212 21.9441C38.1212 21.7793 38.0557 21.6212 37.9392 21.5047C37.8227 21.3882 37.6646 21.3228 37.4998 21.3228C37.3351 21.3228 37.177 21.3882 37.0605 21.5047C36.944 21.6212 36.8785 21.7793 36.8785 21.9441C36.879 21.9869 36.8838 22.0296 36.8927 22.0716V25.4189Z" fill="black"/>
<path d="M38.107 70.4222C38.107 70.2612 38.043 70.1068 37.9292 69.9929C37.8153 69.879 37.6609 69.8151 37.4998 69.8151C37.3388 69.8151 37.1844 69.879 37.0705 69.9929C36.9567 70.1068 36.8927 70.2612 36.8927 70.4222V73.7696C36.8839 73.8122 36.8791 73.8556 36.8785 73.8991C36.8785 74.0639 36.944 74.2219 37.0605 74.3384C37.177 74.4549 37.3351 74.5204 37.4998 74.5204C37.6646 74.5204 37.8227 74.4549 37.9392 74.3384C38.0557 74.2219 38.1212 74.0639 38.1212 73.8991C38.1206 73.8556 38.1158 73.8122 38.107 73.7696V70.4222Z" fill="black"/>
<path d="M63.4775 47.3002C63.4339 47.2998 63.3905 47.3045 63.348 47.3144H60.0026C59.8416 47.3144 59.6872 47.3783 59.5733 47.4922C59.4595 47.6061 59.3955 47.7605 59.3955 47.9215C59.3955 48.0825 59.4595 48.237 59.5733 48.3508C59.6872 48.4647 59.8416 48.5286 60.0026 48.5286H63.348C63.3906 48.5375 63.434 48.5422 63.4775 48.5428C63.6423 48.5428 63.8003 48.4774 63.9168 48.3608C64.0334 48.2443 64.0988 48.0863 64.0988 47.9215C64.0988 47.7567 64.0334 47.5987 63.9168 47.4822C63.8003 47.3657 63.6423 47.3002 63.4775 47.3002Z" fill="black"/>
<path d="M24.1995 24.8867C24.0933 24.9484 24.0077 25.0401 23.9536 25.1504C23.8995 25.2607 23.8793 25.3845 23.8956 25.5062C23.9118 25.628 23.9638 25.7422 24.0449 25.8344C24.1261 25.9266 24.2327 25.9927 24.3514 26.0244C24.47 26.056 24.5954 26.0518 24.7117 26.0122C24.828 25.9726 24.9299 25.8995 25.0046 25.802C25.0793 25.7045 25.1234 25.587 25.1314 25.4645C25.1394 25.3419 25.1109 25.2197 25.0495 25.1134C25.0086 25.0426 24.9542 24.9806 24.8894 24.9309C24.8245 24.8812 24.7505 24.8448 24.6715 24.8237C24.5926 24.8027 24.5102 24.7974 24.4292 24.8082C24.3482 24.819 24.2702 24.8457 24.1995 24.8867Z" fill="black"/>
<path d="M50.1791 69.8818C50.0726 69.9432 49.9867 70.0349 49.9323 70.1451C49.8779 70.2554 49.8574 70.3793 49.8735 70.5012C49.8895 70.623 49.9414 70.7374 50.0225 70.8298C50.1036 70.9222 50.2103 70.9885 50.329 71.0202C50.4478 71.052 50.5733 71.0478 50.6897 71.0082C50.8061 70.9686 50.9081 70.8953 50.9828 70.7977C51.0575 70.7001 51.1016 70.5825 51.1095 70.4598C51.1174 70.3371 51.0887 70.2148 51.027 70.1085C50.9445 69.9661 50.8089 69.8623 50.6499 69.8198C50.4909 69.7773 50.3216 69.7996 50.1791 69.8818Z" fill="black"/>
<path d="M44.0671 77.546C43.9606 77.6074 43.8747 77.6991 43.8204 77.8093C43.766 77.9196 43.7455 78.0435 43.7615 78.1654C43.7776 78.2872 43.8295 78.4016 43.9105 78.494C43.9916 78.5864 44.0983 78.6527 44.2171 78.6844C44.3359 78.7162 44.4614 78.712 44.5778 78.6724C44.6941 78.6327 44.7961 78.5595 44.8709 78.4619C44.9456 78.3643 44.9897 78.2467 44.9976 78.124C45.0054 78.0013 44.9767 77.879 44.9151 77.7727C44.8744 77.702 44.8202 77.64 44.7555 77.5903C44.6908 77.5406 44.617 77.5042 44.5382 77.4832C44.4594 77.4621 44.3772 77.4568 44.2964 77.4676C44.2155 77.4784 44.1376 77.505 44.0671 77.546Z" fill="black"/>
<path d="M28.3219 19.0258C28.4754 18.977 28.6032 18.8691 28.6772 18.7261C28.7513 18.583 28.7654 18.4163 28.7166 18.2628C28.6677 18.1093 28.5599 17.9815 28.4168 17.9075C28.2737 17.8335 28.1071 17.8193 27.9536 17.8682C21.5753 19.8975 16.0079 23.9032 12.0568 29.3059C8.10566 34.7087 5.97574 41.2283 5.9751 47.9216C5.9751 48.0827 6.03906 48.2371 6.15292 48.351C6.26679 48.4648 6.42121 48.5288 6.58224 48.5288C6.74326 48.5288 6.89769 48.4648 7.01155 48.351C7.12541 48.2371 7.18938 48.0827 7.18938 47.9216C7.18982 41.486 9.23771 35.2173 13.0368 30.0226C16.8358 24.828 22.189 20.9766 28.3219 19.0258Z" fill="black"/>
<path d="M30.9327 18.2931C31.0392 18.2316 31.1251 18.14 31.1795 18.0297C31.2339 17.9195 31.2543 17.7956 31.2383 17.6737C31.2222 17.5518 31.1704 17.4374 31.0893 17.345C31.0082 17.2526 30.9015 17.1864 30.7827 17.1546C30.664 17.1229 30.5384 17.1271 30.4221 17.1667C30.3057 17.2063 30.2037 17.2796 30.1289 17.3772C30.0542 17.4748 30.0101 17.5924 30.0023 17.7151C29.9944 17.8378 30.0231 17.96 30.0847 18.0664C30.1254 18.1371 30.1796 18.1991 30.2443 18.2487C30.309 18.2984 30.3828 18.3348 30.4616 18.3559C30.5404 18.377 30.6226 18.3822 30.7034 18.3715C30.7843 18.3607 30.8622 18.334 30.9327 18.2931Z" fill="black"/>
<path d="M14.6916 60.3721C14.5851 60.4335 14.4993 60.5251 14.4449 60.6354C14.3905 60.7456 14.37 60.8695 14.3861 60.9914C14.4021 61.1133 14.454 61.2277 14.5351 61.3201C14.6162 61.4125 14.7228 61.4787 14.8416 61.5105C14.9604 61.5422 15.0859 61.538 15.2023 61.4984C15.3186 61.4588 15.4207 61.3855 15.4954 61.2879C15.5701 61.1903 15.6142 61.0727 15.6221 60.95C15.6299 60.8273 15.6012 60.7051 15.5396 60.5987C15.4989 60.528 15.4447 60.4661 15.38 60.4164C15.3154 60.3667 15.2415 60.3303 15.1627 60.3092C15.0839 60.2882 15.0017 60.2829 14.9209 60.2936C14.8401 60.3044 14.7621 60.3311 14.6916 60.3721Z" fill="black"/>
<path d="M60.3082 35.4691C60.4147 35.4077 60.5006 35.316 60.555 35.2058C60.6093 35.0955 60.6298 34.9716 60.6138 34.8497C60.5977 34.7278 60.5458 34.6135 60.4648 34.5211C60.3837 34.4287 60.277 34.3624 60.1582 34.3306C60.0394 34.2989 59.9139 34.3031 59.7976 34.3427C59.6812 34.3823 59.5792 34.4556 59.5044 34.5532C59.4297 34.6508 59.3856 34.7684 59.3777 34.8911C59.3699 35.0138 59.3986 35.1361 59.4602 35.2424C59.5009 35.3131 59.5551 35.3751 59.6198 35.4248C59.6845 35.4744 59.7583 35.5109 59.8371 35.5319C59.9159 35.553 59.9981 35.5583 60.0789 35.5475C60.1598 35.5367 60.2377 35.5101 60.3082 35.4691Z" fill="black"/>
<path d="M58.4078 6.01878C58.3013 6.0802 58.2154 6.17184 58.161 6.28209C58.1066 6.39234 58.0862 6.51625 58.1022 6.63813C58.1183 6.76002 58.1702 6.8744 58.2512 6.9668C58.3323 7.0592 58.439 7.12547 58.5578 7.15722C58.6766 7.18897 58.8021 7.18477 58.9184 7.14515C59.0348 7.10553 59.1368 7.03228 59.2116 6.93466C59.2863 6.83704 59.3304 6.71945 59.3383 6.59676C59.3461 6.47408 59.3174 6.35181 59.2558 6.24545C59.2151 6.17475 59.1609 6.11278 59.0962 6.0631C59.0315 6.01342 58.9577 5.977 58.8789 5.95594C58.8001 5.93488 58.7179 5.92959 58.6371 5.94037C58.5562 5.95116 58.4783 5.9778 58.4078 6.01878Z" fill="black"/>
<path d="M15.313 34.3945C15.2066 34.3329 15.0843 34.3042 14.9617 34.3121C14.839 34.3199 14.7214 34.364 14.6238 34.4388C14.5261 34.5135 14.4529 34.6155 14.4133 34.7319C14.3737 34.8483 14.3695 34.9738 14.4012 35.0925C14.4329 35.2113 14.4992 35.318 14.5916 35.3991C14.684 35.4802 14.7984 35.532 14.9203 35.5481C15.0422 35.5641 15.1661 35.5437 15.2763 35.4893C15.3866 35.4349 15.4782 35.349 15.5396 35.2425C15.6219 35.1 15.6442 34.9306 15.6017 34.7717C15.5592 34.6127 15.4553 34.4771 15.313 34.3945Z" fill="black"/>
<path d="M60.3082 60.372C60.2018 60.3103 60.0796 60.2816 59.9569 60.2895C59.8342 60.2974 59.7166 60.3414 59.619 60.4162C59.5214 60.4909 59.4481 60.5929 59.4085 60.7093C59.3689 60.8257 59.3647 60.9512 59.3964 61.07C59.4282 61.1887 59.4945 61.2954 59.5869 61.3765C59.6793 61.4576 59.7936 61.5094 59.9155 61.5255C60.0374 61.5416 60.1613 61.5211 60.2716 61.4667C60.3818 61.4123 60.4735 61.3264 60.5349 61.2199C60.6171 61.0774 60.6394 60.908 60.5969 60.7491C60.5544 60.5901 60.4506 60.4545 60.3082 60.372Z" fill="black"/>
<path d="M24.8209 69.8818C24.7143 69.8205 24.592 69.7921 24.4694 69.8003C24.3468 69.8085 24.2293 69.8529 24.1319 69.9279C24.0345 70.0028 23.9615 70.105 23.9222 70.2214C23.8829 70.3379 23.879 70.4634 23.911 70.582C23.943 70.7007 24.0094 70.8072 24.102 70.8881C24.1945 70.969 24.309 71.0206 24.4309 71.0364C24.5528 71.0522 24.6766 71.0315 24.7867 70.977C24.8968 70.9224 24.9883 70.8364 25.0495 70.7298C25.0904 70.6592 25.117 70.5811 25.1276 70.5002C25.1382 70.4193 25.1328 70.3371 25.1115 70.2583C25.0903 70.1795 25.0536 70.1056 25.0038 70.041C24.9539 69.9764 24.8917 69.9223 24.8209 69.8818Z" fill="black"/>
<path d="M50.1791 25.9613C50.2856 26.0226 50.4079 26.0509 50.5306 26.0427C50.6532 26.0345 50.7706 25.9902 50.868 25.9152C50.9654 25.8403 51.0384 25.7381 51.0778 25.6216C51.1171 25.5052 51.121 25.3797 51.089 25.261C51.057 25.1424 50.9905 25.0359 50.898 24.955C50.8054 24.8741 50.691 24.8225 50.5691 24.8067C50.4472 24.7909 50.3234 24.8116 50.2132 24.8661C50.1031 24.9207 50.0116 25.0067 49.9504 25.1133C49.9095 25.1839 49.883 25.2619 49.8723 25.3429C49.8617 25.4238 49.8672 25.506 49.8884 25.5848C49.9097 25.6636 49.9463 25.7374 49.9962 25.8021C50.0461 25.8667 50.1082 25.9208 50.1791 25.9613Z" fill="black"/>
<path d="M16.3168 6.01881C16.2104 5.95717 16.0881 5.92846 15.9654 5.93633C15.8428 5.9442 15.7252 5.98829 15.6275 6.06302C15.5299 6.13776 15.4567 6.23977 15.4171 6.35615C15.3774 6.47252 15.3732 6.59804 15.405 6.71681C15.4367 6.83558 15.503 6.94226 15.5954 7.02335C15.6878 7.10444 15.8022 7.15629 15.9241 7.17235C16.046 7.18841 16.1699 7.16794 16.2801 7.11355C16.3904 7.05916 16.482 6.97328 16.5434 6.86678C16.5844 6.79627 16.611 6.71835 16.6218 6.63751C16.6326 6.55667 16.6273 6.4745 16.6063 6.3957C16.5852 6.31691 16.5488 6.24306 16.4991 6.17838C16.4494 6.1137 16.3875 6.05947 16.3168 6.01881Z" fill="black"/>
</svg>
